<svg id="Layer_1" version="1.1" viewBox="0 0 135 135" xml:space="preserve" xmlns="http://www.w3.org/2000/svg" enable-background="new 0 0 135 135" class="default_cursor_cs"><path d="M118.201 55.734h-14.988a37.235 37.235 0 0 0-2.154-5.153l10.613-10.611c4.595-4.596 4.595-12.046 0-16.643-4.597-4.594-12.047-4.594-16.643 0L84.42 33.94a37.749 37.749 0 0 0-5.154-2.155V16.799c0-6.5-5.268-11.767-11.766-11.767-6.5 0-11.768 5.267-11.768 11.767v14.985a37.698 37.698 0 0 0-5.15 2.155L39.971 23.327c-4.597-4.594-12.048-4.594-16.643 0-4.595 4.597-4.595 12.047 0 16.643l10.613 10.611a37.355 37.355 0 0 0-2.156 5.153H16.797C10.3 55.734 5.031 61 5.031 67.501c0 6.497 5.269 11.765 11.768 11.765h14.986a37.115 37.115 0 0 0 2.154 5.15L23.328 95.03c-4.595 4.598-4.595 12.049 0 16.641a11.733 11.733 0 0 0 8.322 3.448 11.73 11.73 0 0 0 8.32-3.448l10.609-10.611a37.854 37.854 0 0 0 5.152 2.156v14.986c0 6.497 5.268 11.766 11.768 11.766 6.498 0 11.766-5.269 11.766-11.766v-14.986a37.88 37.88 0 0 0 5.154-2.156l10.611 10.611c2.299 2.299 5.309 3.448 8.32 3.448s6.023-1.149 8.32-3.448c4.597-4.596 4.595-12.048 0-16.641l-10.611-10.61a37.247 37.247 0 0 0 2.154-5.154l14.99-.002c6.497 0 11.766-5.27 11.766-11.765-.002-6.499-5.271-11.767-11.768-11.765zM81.59 67.5c0 7.769-6.32 14.091-14.09 14.091S53.408 75.268 53.408 67.5c0-7.771 6.322-14.092 14.092-14.092S81.59 59.729 81.59 67.5z" fill="#ded3d3" class="fill-ffffff default_cursor_cs"></path><path d="m84.42 101.059 10.611 10.611c2.299 2.299 5.309 3.448 8.32 3.448s6.023-1.149 8.32-3.448a11.716 11.716 0 0 0 2.123-2.898 11.795 11.795 0 0 0-2.123-2.899l-10.613-10.609a37.235 37.235 0 0 0 2.154-5.153h3.537l-5.691-5.689a37.247 37.247 0 0 0 2.154-5.154l14.99-.002c4.539 0 8.473-2.576 10.435-6.342-1.962-3.771-5.896-6.347-10.437-6.347h-14.988a37.286 37.286 0 0 0-2.154-5.153l5.691-5.688h-3.537a37.235 37.235 0 0 0-2.154-5.153l10.613-10.611a11.746 11.746 0 0 0 2.123-2.899 11.792 11.792 0 0 0-2.123-2.897c-4.597-4.598-12.047-4.598-16.643 0L84.42 44.782a37.865 37.865 0 0 0-5.154-2.153V27.641c0-6.498-5.268-11.766-11.766-11.766-6.5 0-11.768 5.268-11.768 11.766v14.988a37.815 37.815 0 0 0-5.15 2.153l-10.611-10.61c-4.597-4.598-12.048-4.598-16.643 0a11.792 11.792 0 0 0-2.123 2.897 11.746 11.746 0 0 0 2.123 2.899l10.613 10.611a37.355 37.355 0 0 0-2.156 5.153h-3.536l5.692 5.688a37.459 37.459 0 0 0-2.156 5.153H16.797c-4.541 0-8.475 2.579-10.436 6.347 1.961 3.766 5.896 6.344 10.438 6.344h14.986a37.115 37.115 0 0 0 2.154 5.15l-5.692 5.693h3.538a37.23 37.23 0 0 0 2.154 5.151l-10.611 10.611a11.82 11.82 0 0 0-2.123 2.899 11.741 11.741 0 0 0 2.123 2.898 11.733 11.733 0 0 0 8.322 3.448 11.73 11.73 0 0 0 8.32-3.448l10.609-10.611a37.854 37.854 0 0 0 5.152 2.156v14.987c0 6.497 5.268 11.766 11.768 11.766 6.498 0 11.766-5.269 11.766-11.766v-14.987a37.2 37.2 0 0 0 5.155-2.152zM67.5 89.43c-7.77 0-14.092-3.318-14.092-11.088a14 14 0 0 1 1.088-5.42 14.014 14.014 0 0 1-1.088-5.423c0-7.771 6.322-14.092 14.092-14.092S81.59 59.729 81.59 67.5c0 1.921-.389 3.753-1.088 5.423a14 14 0 0 1 1.088 5.42c0 7.769-6.32 11.087-14.09 11.087z" fill="#c1d2d9" class="fill-d8e5ea default_cursor_cs"></path><path d="M67.5 131.467c-7.315 0-13.268-5.951-13.268-13.266V104.28a39.826 39.826 0 0 1-3.35-1.402l-9.852 9.853a13.182 13.182 0 0 1-9.381 3.888 13.183 13.183 0 0 1-9.383-3.888c-5.173-5.169-5.173-13.586 0-18.762l9.854-9.855a38.617 38.617 0 0 1-1.402-3.348h-13.92c-7.315 0-13.268-5.951-13.268-13.265 0-7.316 5.951-13.268 13.266-13.268h13.922a39.426 39.426 0 0 1 1.403-3.351l-9.854-9.854c-5.172-5.172-5.172-13.59 0-18.764 2.506-2.505 5.837-3.885 9.381-3.885s6.876 1.379 9.383 3.884l9.854 9.856a39.36 39.36 0 0 1 3.347-1.403V16.799c0-7.315 5.952-13.267 13.268-13.267 7.314 0 13.266 5.951 13.266 13.267v13.919c1.112.406 2.233.875 3.351 1.404l9.853-9.856a13.184 13.184 0 0 1 9.382-3.885c3.543 0 6.875 1.379 9.382 3.884 5.172 5.174 5.172 13.592 0 18.764l-9.855 9.854a39.162 39.162 0 0 1 1.403 3.351h13.921c7.315 0 13.266 5.951 13.268 13.265 0 7.314-5.951 13.265-13.266 13.265l-13.923.002a39.11 39.11 0 0 1-1.403 3.351l9.855 9.852a13.18 13.18 0 0 1 3.887 9.38c0 3.544-1.38 6.876-3.887 9.382a13.173 13.173 0 0 1-9.381 3.888 13.182 13.182 0 0 1-9.381-3.888l-9.854-9.854a39.906 39.906 0 0 1-3.352 1.403v13.921c0 7.315-5.952 13.266-13.266 13.266zM50.58 99.559c.23 0 .463.053.679.162a36.555 36.555 0 0 0 4.948 2.071 1.5 1.5 0 0 1 1.025 1.423v14.986c0 5.661 4.606 10.266 10.268 10.266 5.66 0 10.266-4.605 10.266-10.266v-14.986a1.5 1.5 0 0 1 1.026-1.423 36.56 36.56 0 0 0 4.95-2.071 1.5 1.5 0 0 1 1.738.278l10.611 10.611a10.202 10.202 0 0 0 7.26 3.009c2.743 0 5.321-1.068 7.259-3.008a10.203 10.203 0 0 0 3.009-7.261 10.194 10.194 0 0 0-3.008-7.258L99.998 85.481a1.502 1.502 0 0 1-.278-1.738 35.878 35.878 0 0 0 2.068-4.947 1.5 1.5 0 0 1 1.425-1.03l14.99-.002c5.66 0 10.266-4.604 10.266-10.265-.002-5.66-4.606-10.266-10.264-10.266h-14.992a1.502 1.502 0 0 1-1.425-1.03 36.025 36.025 0 0 0-2.067-4.946 1.499 1.499 0 0 1 .277-1.738l10.613-10.611c4.002-4.003 4.002-10.518 0-14.521a10.207 10.207 0 0 0-7.261-3.006 10.207 10.207 0 0 0-7.261 3.006L85.48 35a1.497 1.497 0 0 1-1.736.278 36.567 36.567 0 0 0-4.949-2.07 1.5 1.5 0 0 1-1.029-1.424V16.799c0-5.661-4.605-10.267-10.266-10.267s-10.268 4.605-10.268 10.267v14.985c0 .647-.414 1.221-1.028 1.424a36.405 36.405 0 0 0-4.945 2.07A1.498 1.498 0 0 1 49.521 35L38.91 24.387a10.207 10.207 0 0 0-7.262-3.006 10.2 10.2 0 0 0-7.26 3.006c-4.002 4.004-4.002 10.519 0 14.521L35.002 49.52a1.5 1.5 0 0 1 .277 1.739 36.047 36.047 0 0 0-2.07 4.947 1.499 1.499 0 0 1-1.424 1.028H16.797c-5.66 0-10.266 4.606-10.266 10.268 0 5.66 4.606 10.265 10.268 10.265h14.986a1.5 1.5 0 0 1 1.425 1.03 35.722 35.722 0 0 0 2.067 4.942A1.5 1.5 0 0 1 35 85.478L24.389 96.09c-4.003 4.005-4.003 10.519 0 14.519a10.201 10.201 0 0 0 7.262 3.009 10.2 10.2 0 0 0 7.26-3.009l10.609-10.61c.288-.289.671-.44 1.06-.44zM67.5 83.09c-8.598 0-15.592-6.994-15.592-15.591S58.902 51.907 67.5 51.907c8.597 0 15.59 6.995 15.59 15.592 0 8.597-6.993 15.591-15.59 15.591zm0-28.182c-6.943 0-12.592 5.648-12.592 12.592 0 6.942 5.648 12.591 12.592 12.591 6.942 0 12.59-5.648 12.59-12.591 0-6.944-5.648-12.592-12.59-12.592z" fill="#222529" class="fill-33363a default_cursor_cs"></path><circle cx="67.5" cy="67.499" r="21.931" fill="#7e8c8f" class="fill-95a2a5"></circle><ellipse cx="67.5" cy="67.499" rx="21.931" ry="16.799" fill="#6d7b80" class="fill-808e93"></ellipse><path d="M45.569 67.499c0 12.113 9.819 21.932 21.931 21.932s21.931-9.818 21.931-21.932H45.569z" fill="#ded3d3" class="fill-ffffff"></path><path d="M67.5 84.297c12.111 0 21.931-7.521 21.931-16.799H45.569c0 9.278 9.82 16.799 21.931 16.799z" fill="#c1d2d9" class="fill-d8e5ea default_cursor_cs"></path><path d="M67.5 90.93c-12.92 0-23.431-10.511-23.431-23.432 0-12.919 10.511-23.43 23.431-23.43s23.431 10.511 23.431 23.43c0 12.921-10.511 23.432-23.431 23.432zm0-43.861c-11.266 0-20.431 9.165-20.431 20.43 0 11.266 9.165 20.432 20.431 20.432s20.431-9.166 20.431-20.432c0-11.266-9.165-20.43-20.431-20.43z" fill="#222529" class="fill-33363a default_cursor_cs"></path><path d="M89.431 68.999H45.569a1.5 1.5 0 1 1 0-3H89.43a1.5 1.5 0 0 1 .001 3z" fill="#222529" class="fill-33363a"></path><circle cx="67.5" cy="70.011" r="7.251" fill="#92a9b0" class="fill-a7bbc1"></circle><circle cx="67.5" cy="67.546" r="7.251" fill="#ded3d3" class="fill-ffffff"></circle><path d="M62.373 72.674a7.252 7.252 0 0 1 10.254-10.256" fill="#c1d2d9" class="fill-d8e5ea"></path><path d="M67.5 76.297a8.7 8.7 0 0 1-6.188-2.562c-3.412-3.413-3.412-8.965 0-12.377a8.694 8.694 0 0 1 6.188-2.563c2.338 0 4.535.911 6.188 2.563 3.412 3.412 3.412 8.965 0 12.377a8.696 8.696 0 0 1-6.188 2.562zm0-14.503a5.71 5.71 0 0 0-4.066 1.685 5.76 5.76 0 0 0 0 8.135c1.086 1.085 2.53 1.683 4.066 1.683s2.98-.598 4.066-1.684a5.76 5.76 0 0 0 0-8.134 5.713 5.713 0 0 0-4.066-1.685z" fill="#222529" class="fill-33363a"></path></svg>